:SAMPLES-PER-SECOND 30
:FULLY-SPECIFIED
:DEGREES
283
root  -2.13037 37.9023 -7.4567 -145.979 -85.8414 144.833
RightUpLeg  -19.9961 -23.6697 -11.2192
RightLeg  36.5616 -13.0549 -10.4293
RightFoot  -8.3978 -0.392459 12.95
RightToes  -1.33073e-015 0 -3.6325e-017
Spine  22.3055 0.197653 1.86491
Spine1  -16.2176 0.780265 -5.7904
HEad  -9.71417 8.34654 -4.43143
LeftShoulder1  0.354046 1.30038 -8.39931
LeftArm  -50.7704 11.5976 -27.4051
LeftForeArm  70.6573 -75.2439 -125.081
LeftHand  -0.0166919 5.30569 36.3033
RightShoulder  0.471379 -0.812379 10.0721
RightArm  -62.5829 -16.5471 27.0212
RightForeArm  41.0186 77.6278 98.8647
RightHand  -2.26119 1.7391 -35.9136
LeftUpLeg  -24.4589 33.1721 2.50168
LeftLeg  51.9201 1.85346 3.11574
LeftFoot  -10.2895 0.242336 -19.6517
LeftToes  -4.0021e-011 8.38769e-011 -3.99229e-011
284
root  -1.83055 36.2015 -7.92899 -145.169 -86.5459 143.232
RightUpLeg  -26.1172 -24.6398 -10.5292
RightLeg  49.0167 -9.8922 -12.3091
RightFoot  -11.9804 -0.0150758 12.0253
RightToes  -1.33073e-015 0 -3.6325e-017
Spine  25.0207 -0.06575 2.2016
Spine1  -16.5843 0.639834 -5.7353
HEad  -12.3963 7.48463 -4.83307
LeftShoulder1  0.0213325 3.35067 -2.51265
LeftArm  -53.0618 6.11816 -24.0778
LeftForeArm  63.8366 -75.8257 -120.816
LeftHand  -0.000195657 5.35936 35.0619
RightShoulder  0.0891494 -2.76381 3.83404
RightArm  -66.0686 -13.2677 23.4619
RightForeArm  32.0877 77.6735 93.1337
RightHand  -2.07987 1.78137 -32.9707
LeftUpLeg  -29.8326 33.0144 0.257593
LeftLeg  60.7623 1.59661 3.80228
LeftFoot  -11.7909 0.0140627 -16.9096
LeftToes  -4.0021e-011 8.38769e-011 -3.99229e-011
285
root  -1.51372 34.252 -8.4596 -146.142 -87.3355 143.92
RightUpLeg  -32.5209 -25.3796 -9.15532
RightLeg  60.6061 -7.30039 -14.2645
RightFoot  -16.4238 0.38458 11.167
RightToes  -1.33073e-015 0 -3.6325e-017
Spine  28.5152 -0.017101 1.91162
Spine1  -18.6943 0.608818 -4.63868
HEad  -14.8809 6.64489 -5.4711
LeftShoulder1  -0.0780364 5.62776 5.28388
LeftArm  -57.2252 -0.299367 -18.0477
LeftForeArm  37.7913 -77.5415 -97.6417
LeftHand  -0.0952681 5.03621 32.6336
RightShoulder  -0.0726338 -4.61526 -2.36147
RightArm  -70.3238 -9.20489 15.8437
RightForeArm  5.09287 76.7434 69.518
RightHand  -1.81899 1.76792 -29.1593
LeftUpLeg  -34.6183 31.3507 -1.0888
LeftLeg  67.837 2.47346 7.53651
LeftFoot  -17.0518 -0.463415 -11.7563
LeftToes  -4.0021e-011 8.38769e-011 -3.99229e-011
286
root  -1.16659 32.4363 -9.00529 -144.705 -88.0017 142.788
RightUpLeg  -38.7852 -26.359 -7.35713
RightLeg  70.1265 -5.10109 -16.1257
RightFoot  -20.4695 0.700572 10.479
RightToes  -1.33073e-015 0 -3.6325e-017
Spine  31.4097 0.166 1.29557
Spine1  -19.3613 0.70257 -3.58522
HEad  -20.0342 5.60769 -6.28555
LeftShoulder1  0.133146 7.60073 13.4282
LeftArm  -63.9641 -4.48543 -11.6183
LeftForeArm  -2.02199 -75.6375 -59.1487
LeftHand  -0.11588 4.9587 32.0316
RightShoulder  -0.0431081 -5.87355 -7.53338
RightArm  -75.8379 -6.62441 6.96357
RightForeArm  -23.3762 71.8861 42.6868
RightHand  -1.81093 2.02202 -28.0522
LeftUpLeg  -38.5462 29.0447 -1.58874
LeftLeg  73.2746 2.90629 11.932
LeftFoot  -25.0402 -0.828954 -7.98246
LeftToes  -4.0021e-011 8.38769e-011 -3.99229e-011
287
root  -0.896098 31.1791 -9.5823 -131.079 -88.2575 129.048
RightUpLeg  -42.7625 -27.2045 -6.23395
RightLeg  76.4603 -3.30776 -16.9199
RightFoot  -23.1023 0.921349 10.4306
RightToes  -1.33073e-015 0 -3.6325e-017
Spine  32.7229 0.499014 -0.0490587
Spine1  -16.9274 0.77662 -2.63184
HEad  -26.8237 4.69049 -6.52219
LeftShoulder1  0.447454 8.81487 19.3512
LeftArm  -71.5844 -5.36078 -6.67077
LeftForeArm  -24.0296 -69.7815 -36.1894
LeftHand  -0.0452194 5.21458 34.2207
RightShoulder  0.0434101 -6.72804 -11.1272
RightArm  -80.6603 -6.81392 1.11972
RightForeArm  -36.0349 65.6195 29.1063
RightHand  -2.02427 2.44615 -29.5907
LeftUpLeg  -40.745 27.6498 -1.17289
LeftLeg  77.1405 2.47163 13.9616
LeftFoot  -30.429 -1.14205 -7.8377
LeftToes  -4.0021e-011 8.38769e-011 -3.99229e-011
288
root  -0.86739 30.8169 -10.2032 -116.93 -87.8947 113.606
RightUpLeg  -42.2841 -27.1488 -6.29333
RightLeg  78.5569 -2.62729 -16.8798
RightFoot  -24.76 1.12643 10.9851
RightToes  -1.33073e-015 0 -3.6325e-017
Spine  32.8103 0.962045 -1.97379
Spine1  -14.0413 0.706177 -1.83495
HEad  -29.9434 4.69111 -5.63268
LeftShoulder1  0.589297 8.79053 22.3608
LeftArm  -76.8223 -4.89817 -6.28349
LeftForeArm  -25.6313 -67.8284 -32.3534
LeftHand  0.0166163 5.40609 36.6904
RightShoulder  0.0854312 -6.99556 -12.3685
RightArm  -82.0908 -8.05715 1.93079
RightForeArm  -35.3739 64.744 28.0691
RightHand  -2.17788 2.53169 -31.4089
LeftUpLeg  -39.8354 27.994 0.422628
LeftLeg  78.5322 1.85896 12.6375
LeftFoot  -30.7267 -1.39143 -9.23412
LeftToes  -4.0021e-011 8.38769e-011 -3.99229e-011
289
root  -1.12861 31.4059 -10.8486 -120.313 -87.3302 115.614
RightUpLeg  -38.629 -26.5458 -6.41816
RightLeg  76.3619 -3.42512 -17.2369
RightFoot  -25.3105 1.15565 10.8075
RightToes  -1.33073e-015 0 -3.6325e-017
Spine  32.0383 1.2182 -3.68554
Spine1  -13.6307 0.445553 -1.50835
HEad  -26.5091 5.74049 -4.19348
LeftShoulder1  0.479045 7.85443 22.1311
LeftArm  -76.5638 -5.28904 -10.8776
LeftForeArm  -9.14928 -73.1103 -46.556
LeftHand  0.0334751 5.45259 37.5661
RightShoulder  0.020405 -6.40078 -10.2617
RightArm  -79.4409 -7.67231 8.86422
RightForeArm  -21.4988 70.9023 40.0267
RightHand  -2.19999 2.3756 -32.3048
LeftUpLeg  -36.036 29.4203 2.97388
LeftLeg  76.0873 1.79797 9.84865
LeftFoot  -28.0823 -1.35736 -10.346
LeftToes  -4.0021e-011 8.38769e-011 -3.99229e-011
290
root  -1.56816 32.7547 -11.4735 -129.708 -87.0799 125.051
RightUpLeg  -34.7922 -27.3342 -5.76096
RightLeg  71.1296 -4.70849 -16.0099
RightFoot  -22.8173 0.800011 9.3576
RightToes  -1.33073e-015 0 -3.6325e-017
Spine  29.9909 0.95054 -4.74361
Spine1  -15.302 -0.0665795 -1.3321
HEad  -19.6192 7.20778 -3.31027
LeftShoulder1  0.239505 6.95634 17.6076
LeftArm  -69.6103 -5.47721 -17.1605
LeftForeArm  35.7196 -77.8555 -88.7398
LeftHand  0.114805 5.69846 37.3468
RightShoulder  -0.0577019 -5.03133 -4.86996
RightArm  -73.0517 -6.43152 17.3972
RightForeArm  12.8177 77.0766 70.9094
RightHand  -2.15586 2.15459 -32.5639
LeftUpLeg  -31.068 30.7859 5.33326
LeftLeg  69.2191 2.24288 7.43838
LeftFoot  -25.1791 -1.21467 -11.2251
LeftToes  -4.0021e-011 8.38769e-011 -3.99229e-011
291
root  -2.04756 34.5387 -12.0114 -137.072 -87.3979 133.577
RightUpLeg  -31.4286 -30.6878 -5.31493
RightLeg  64.3287 -3.66279 -9.0448
RightFoot  -16.198 0.261831 9.41984
RightToes  -1.33073e-015 0 -3.6325e-017
Spine  27.0059 0.360517 -5.00557
Spine1  -17.0722 -0.623928 -0.61924
HEad  -13.9699 8.54528 -3.4443
LeftShoulder1  -0.0145827 5.89448 8.54896
LeftArm  -59.7442 -3.15422 -21.5728
LeftForeArm  76.4801 -75.459 -125.351
LeftHand  0.125622 5.73582 36.9302
RightShoulder  0.0532844 -3.0294 2.15037
RightArm  -65.2124 -7.80139 23.266
RightForeArm  49.2972 77.6196 102.841
RightHand  -2.14572 2.04737 -32.8601
LeftUpLeg  -25.8888 31.4064 6.8266
LeftLeg  58.9072 3.05085 6.03101
LeftFoot  -21.8504 -0.99492 -12.2092
LeftToes  -4.0021e-011 8.38769e-011 -3.99229e-011
292
root  -2.48872 36.3592 -12.4576 -147.421 -88.1172 144.847
RightUpLeg  -27.1954 -34.6627 -6.46238
RightLeg  57.007 1.09475 1.29207
RightFoot  -8.28507 -0.438511 13.8194
RightToes  -1.33073e-015 0 -3.6325e-017
Spine  24.3137 -0.00316496 -4.37983
Spine1  -18.1394 -0.768185 0.259861
HEad  -10.8326 9.34977 -3.82268
LeftShoulder1  -0.0153353 3.75149 -2.48579
LeftArm  -52.2677 1.35366 -23.0676
LeftForeArm  89.461 -73.2875 -135.246
LeftHand  -0.0154343 5.3078 36.3282
RightShoulder  0.411306 -0.926741 8.69618
RightArm  -59.7305 -12.3666 25.3973
RightForeArm  62.758 76.8711 113.559
RightHand  -2.10389 1.90477 -32.8443
LeftUpLeg  -20.3785 30.9424 8.04789
LeftLeg  47.3635 4.38795 5.51885
LeftFoot  -16.8252 -0.524491 -12.9772
LeftToes  -4.0021e-011 8.38769e-011 -3.99229e-011
293
root  -2.82945 37.8921 -12.884 -175.468 -88.543 173.301
RightUpLeg  -21.9194 -35.6595 -8.74091
RightLeg  49.126 5.30975 6.33926
RightFoot  -5.25499 -1.01852 18.825
RightToes  -1.33073e-015 0 -3.6325e-017
Spine  22.2122 0.159177 -2.77025
Spine1  -18.3628 -0.285465 0.479462
HEad  -9.2148 9.30723 -3.83569
LeftShoulder1  0.438368 0.959988 -10.3345
LeftArm  -48.4933 5.16285 -23.5111
LeftForeArm  87.2858 -73.6297 -133.696
LeftHand  -0.163016 4.84068 35.3788
RightShoulder  0.731238 0.250067 12.6666
RightArm  -57.9375 -16.6199 25.1327
RightForeArm  60.9608 76.9072 112.7
RightHand  -2.00819 1.71262 -32.2377
LeftUpLeg  -15.1941 29.2097 9.52259
LeftLeg  36.8447 6.64835 5.68086
LeftFoot  -10.499 0.164601 -13.5704
LeftToes  -4.0021e-011 8.38769e-011 -3.99229e-011
294
root  -2.98598 38.9645 -13.3296 150.329 -88.122 -151.909
RightUpLeg  -17.533 -32.0493 -10.6338
RightLeg  40.6662 2.17201 1.92902
RightFoot  -8.24777 -0.585176 18.6737
RightToes  -1.33073e-015 0 -3.6325e-017
Spine  20.2188 0.603595 -0.620929
Spine1  -17.662 0.493647 0.208491
HEad  -8.83601 8.56719 -3.7659
LeftShoulder1  0.845914 -0.990201 -11.8436
LeftArm  -47.0277 5.87167 -24.6901
LeftForeArm  77.527 -75.1977 -126.205
LeftHand  -0.201663 4.70847 34.8707
RightShoulder  0.688948 -0.0165017 12.7697
RightArm  -58.929 -17.21 24.2544
RightForeArm  52.7632 77.3132 106.801
RightHand  -2.03027 1.83947 -32.0286
LeftUpLeg  -11.8669 26.6209 10.8212
LeftLeg  28.9665 9.86457 6.21528
LeftFoot  -4.48818 0.902817 -14.5394
LeftToes  -4.0021e-011 8.38769e-011 -3.99229e-011
295
root  -2.90711 39.4446 -13.8002 140.996 -87.6302 -141.59
RightUpLeg  -15.8083 -25.6104 -12.1432
RightLeg  34.9206 -9.08596 -7.07635
RightFoot  -11.3828 -0.0666712 12.9362
RightToes  -1.33073e-015 0 -3.6325e-017
Spine  18.9053 0.878676 0.866245
Spine1  -16.9219 0.971603 0.053093
HEad  -9.76117 7.81349 -3.85097
LeftShoulder1  0.787747 -1.29209 -8.9469
LeftArm  -47.4545 3.08748 -24.8868
LeftForeArm  66.4543 -76.6785 -115.798
LeftHand  -0.142249 4.90435 35.2152
RightShoulder  0.41065 -1.12918 10.0509
RightArm  -61.4833 -14.1023 22.8753
RightForeArm  44.1441 77.707 98.4722
RightHand  -2.13871 2.17313 -32.2482
LeftUpLeg  -11.4993 24.5795 11.3709
LeftLeg  25.3271 12.7634 6.85979
LeftFoot  -0.375586 1.49921 -15.5462
LeftToes  -4.0021e-011 8.38769e-011 -3.99229e-011
296
root  -2.6296 39.3556 -14.3012 140.288 -87.6398 -139.892
RightUpLeg  -16.302 -20.1636 -14.0322
RightLeg  33.5922 -17.9006 -12.6813
RightFoot  -12.9217 0.0186598 7.67107
RightToes  -1.33073e-015 0 -3.6325e-017
Spine  19.3374 0.743718 1.36942
Spine1  -17.4804 0.904778 0.154367
HEad  -11.3422 7.57988 -4.01953
LeftShoulder1  0.447625 -0.000439155 -4.81017
LeftArm  -50.1162 -1.98967 -22.1123
LeftForeArm  52.3175 -77.7279 -101.549
LeftHand  -0.0847462 5.09025 35.3739
RightShoulder  0.178546 -2.20576 6.25106
RightArm  -64.5439 -9.258 20.2497
RightForeArm  31.796 77.8088 85.662
RightHand  -2.07231 2.08588 -31.6294
LeftUpLeg  -13.7768 23.9542 11.4863
LeftLeg  26.3209 13.6894 7.59845
LeftFoot  1.17876 1.74436 -15.8809
LeftToes  -4.0021e-011 8.38769e-011 -3.99229e-011
297
root  -2.24458 38.7454 -14.8307 142.159 -87.653 -141.033
RightUpLeg  -17.9554 -18.1404 -15.7173
RightLeg  34.0482 -17.8922 -12.8068
RightFoot  -15.9387 0.20093 7.39479
RightToes  -1.33073e-015 0 -3.6325e-017
Spine  21.5373 0.476181 1.44765
Spine1  -19.267 0.664699 0.392279
HEad  -13.0556 7.60548 -4.3638
LeftShoulder1  0.104431 2.27828 0.443399
LeftArm  -54.6954 -7.17553 -18.0263
LeftForeArm  29.5375 -77.7748 -81.2318
LeftHand  0.010079 5.39078 35.4552
RightShoulder  0.0263925 -3.25252 1.46644
RightArm  -67.7252 -4.26281 16.8364
RightForeArm  11.204 76.8206 67.5592
RightHand  -1.88747 1.61719 -30.8003
LeftUpLeg  -17.8735 24.1874 11.9935
LeftLeg  31.4839 12.0782 8.18908
LeftFoot  0.00341856 1.63399 -16.3878
LeftToes  -4.0021e-011 8.38769e-011 -3.99229e-011
